<svg xmlns="http://www.w3.org/2000/svg" width="1376" height="364" viewBox="0 0 1376 364">
  <rect width="100%" height="100%" fill="#000000"/>
  <path d="M 1035 48 L 1021 71 L 1011 106 L 1012 356 L 1050 354 L 1053 99 L 1065 75 L 1079 61 L 1114 47 L 1200 47 L 1216 51 L 1243 69 L 1262 103 L 1263 135 L 1252 161 L 1234 180 L 1193 202 L 1178 222 L 1174 252 L 1188 282 L 1206 297 L 1230 305 L 1370 304 L 1369 267 L 1240 267 L 1227 262 L 1218 251 L 1218 239 L 1226 230 L 1253 218 L 1279 195 L 1295 168 L 1304 137 L 1304 104 L 1296 75 L 1280 48 L 1261 29 L 1234 13 L 1208 6 L 1109 6 L 1070 19 Z M 71 7 L 72 48 L 292 49 L 292 245 L 285 267 L 273 286 L 241 311 L 210 319 L 131 319 L 102 312 L 71 289 L 55 263 L 46 220 L 7 220 L 4 223 L 7 257 L 23 297 L 36 315 L 62 338 L 110 358 L 224 359 L 268 344 L 287 331 L 310 306 L 332 257 L 335 9 L 332 6 Z M 1076 82 L 1066 101 L 1063 119 L 1065 356 L 1103 354 L 1103 121 L 1107 111 L 1122 101 L 1191 101 L 1198 104 L 1207 117 L 1206 129 L 1197 140 L 1171 152 L 1146 173 L 1131 195 L 1121 221 L 1121 266 L 1130 291 L 1147 317 L 1177 342 L 1217 356 L 1370 355 L 1368 318 L 1226 317 L 1195 305 L 1170 279 L 1160 248 L 1162 227 L 1170 209 L 1189 189 L 1229 168 L 1248 139 L 1248 103 L 1240 86 L 1227 72 L 1199 60 L 1114 60 L 1092 68 Z M 428 34 L 395 68 L 379 100 L 374 121 L 373 355 L 411 356 L 414 353 L 414 133 L 426 98 L 449 71 L 476 54 L 504 46 L 544 46 L 566 52 L 590 66 L 609 86 L 621 108 L 627 134 L 627 354 L 665 356 L 667 123 L 658 88 L 640 57 L 600 22 L 580 12 L 548 4 L 490 7 L 456 18 Z M 757 31 L 734 51 L 717 74 L 701 117 L 698 354 L 737 354 L 738 132 L 750 96 L 771 71 L 800 53 L 825 46 L 863 46 L 893 55 L 911 67 L 926 83 L 940 108 L 946 137 L 945 353 L 947 356 L 982 356 L 985 133 L 980 100 L 961 61 L 944 41 L 921 23 L 875 5 L 812 7 L 777 19 Z M 445 92 L 433 113 L 428 130 L 427 211 L 429 214 L 612 214 L 614 212 L 614 135 L 612 123 L 608 111 L 598 93 L 578 73 L 566 66 L 544 59 L 502 59 L 484 64 L 468 72 L 458 79 Z M 767 93 L 758 108 L 753 122 L 751 133 L 751 212 L 753 214 L 932 213 L 931 124 L 921 99 L 909 83 L 899 74 L 881 64 L 868 60 L 824 59 L 809 63 L 790 72 L 777 82 Z M 71 61 L 70 99 L 73 101 L 235 101 L 237 103 L 237 238 L 230 252 L 220 261 L 207 266 L 139 266 L 124 260 L 112 247 L 105 220 L 66 220 L 62 232 L 65 251 L 72 268 L 82 282 L 103 298 L 132 306 L 217 305 L 238 298 L 253 288 L 270 267 L 279 240 L 279 63 L 277 61 Z M 428 228 L 427 353 L 429 356 L 466 356 L 469 353 L 469 271 L 472 268 L 570 268 L 573 271 L 573 354 L 575 356 L 613 355 L 614 229 L 612 227 Z M 751 229 L 752 356 L 787 356 L 789 354 L 790 271 L 793 268 L 890 268 L 892 270 L 892 354 L 894 356 L 930 356 L 932 354 L 931 227 L 753 227 Z M 473 129 L 478 120 L 488 110 L 502 103 L 539 102 L 551 106 L 564 117 L 570 127 L 573 137 L 573 171 L 569 174 L 473 173 L 471 171 L 470 158 L 471 135 Z M 797 123 L 809 110 L 820 104 L 827 102 L 859 102 L 870 106 L 884 118 L 890 129 L 892 136 L 892 171 L 889 174 L 794 173 L 792 171 L 792 136 Z " fill="#ffffff" fill-rule="evenodd"/>
</svg>
